<svg width="100%" height="100%" viewBox="0 0 235 283" version="1.1" xmlns="http://www.w3.org/2000/svg" style="fill-rule:evenodd;clip-rule:evenodd;stroke-linejoin:round;stroke-miterlimit:2;">
    <g transform="matrix(4.16667,0,0,4.16667,-819.938,-1068.92)">
        <path d="M224.92,304.625C213.878,304.625 204.926,295.673 204.926,284.631C204.926,273.588 213.878,264.637 224.92,264.637C235.963,264.637 244.914,273.588 244.914,284.631C244.914,295.673 235.963,304.625 224.92,304.625ZM224.92,256.542C209.381,256.542 196.785,269.139 196.785,284.677C196.785,306.422 224.92,324.398 224.92,324.398C224.92,324.398 253.055,305.87 253.055,284.677C253.055,269.139 240.459,256.542 224.92,256.542Z" class="marker" style="fill:rgb(247,140,30);fill-rule:nonzero;"/>
    </g>
</svg>
